<svg id="Layer_1" data-name="Layer 1" xmlns="http://www.w3.org/2000/svg" viewBox="0 0 33 40">
  <defs>
    <style>
      .cls-1 {
        fill: #95713a;
      }

      .cls-2 {
        fill: none;
      }
    </style>
  </defs>
  <title>Icons</title>
  <g>
    <path class="cls-1" d="M22.39,0h-18A4.37,4.37,0,0,0,0,4.34V35.66A4.36,4.36,0,0,0,4.38,40H28.62A4.36,4.36,0,0,0,33,35.66V10.5Zm6.23,37.77H4.38a2.12,2.12,0,0,1-2.12-2.11V4.34a2.11,2.11,0,0,1,2.12-2.1H20.47V9.08a3.24,3.24,0,0,0,3.25,3.22h7V35.66A2.12,2.12,0,0,1,28.62,37.77Z"/>
    <path class="cls-1" d="M21.23,23.38l-3.6,3.56V15.31a1.13,1.13,0,0,0-2.26,0V26.94l-3.59-3.56a1.13,1.13,0,0,0-1.6,0,1.11,1.11,0,0,0,0,1.58l5.52,5.46a1.13,1.13,0,0,0,1.6,0L22.82,25a1.11,1.11,0,0,0,0-1.58A1.12,1.12,0,0,0,21.23,23.38Z"/>
  </g>
  <rect class="cls-2" width="33" height="40"/>
</svg>
